<svg version="1.1" viewBox="0.0 0.0 600.0 371.0" fill="none" stroke="none" stroke-linecap="square" stroke-miterlimit="10" width="600" height="371" xmlns:xlink="http://www.w3.org/1999/xlink" xmlns="http://www.w3.org/2000/svg"><path fill="#ffffff" d="M0 0L600.0 0L600.0 371.0L0 371.0L0 0Z" fill-rule="nonzero"/><path stroke="#cccccc" stroke-width="1.0" stroke-linecap="butt" d="M52.5 272.5L581.5 272.5" fill-rule="nonzero"/><path stroke="#333333" stroke-width="1.0" stroke-linecap="butt" d="M52.5 202.5L581.5 202.5" fill-rule="nonzero"/><path stroke="#cccccc" stroke-width="1.0" stroke-linecap="butt" d="M52.5 131.5L581.5 131.5" fill-rule="nonzero"/><path stroke="#cccccc" stroke-width="1.0" stroke-linecap="butt" d="M52.5 61.5L581.5 61.5" fill-rule="nonzero"/><clipPath id="id_0"><path d="M52.55 61.916668L581.45 61.916668L581.45 272.06668L52.55 272.06668L52.55 61.916668Z" clip-rule="nonzero"/></clipPath><path stroke="#4285f4" stroke-width="2.0" stroke-linecap="butt" clip-path="url(#id_0)" d="M56.12365 184.76784L63.270947 203.9235L70.41824 179.31293L77.565544 186.4067L84.71284 169.69936L91.86014 251.01778L99.00743 224.94264L106.15473 131.56102L113.302025 249.99863L120.449326 238.7975L127.59662 173.33093L134.74391 202.6698L141.89122 212.67235L149.03851 179.90062L156.1858 184.76564L163.33311 239.49635L170.48041 195.75854L177.6277 167.37671L184.775 254.34877L191.9223 146.67337L199.0696 243.56319L206.21689 181.61198L213.3642 204.45586L220.51149 206.36166L227.65878 216.10973L234.80608 209.10767L241.95338 162.56482L249.10068 249.37253L256.248 155.6444L263.39526 211.96284L270.54257 231.63928L277.68985 244.39272L284.83716 85.46759L291.98447 217.15079L299.13174 209.30963L306.27905 218.91235L313.42636 210.46107L320.57364 200.06831L327.72095 216.8169L334.86826 182.04698L342.01553 225.71788L349.16284 206.97116L356.31015 206.84976L363.45743 210.63614L370.60474 241.4829L377.752 226.09814L384.89932 189.30615L392.04663 199.69797L399.1939 204.10487L406.34122 201.99574L413.48853 177.38675L420.6358 190.62602L427.7831 173.65292L434.93042 167.28188L442.0777 164.95625L449.225 259.23816L456.37228 145.544L463.5196 238.83163L470.6669 168.83148L477.81418 210.82362L484.9615 200.32187L492.1088 201.90982L499.25607 213.20625L506.40338 206.48149L513.55066 201.18987L520.698 146.22324L527.8453 200.56773L534.99255 194.55968L542.1399 224.35583L549.2872 223.47116L556.43445 218.41135L563.5818 238.47464L570.72906 208.19115L577.87634 204.42116" fill-rule="nonzero"/><path fill="#000000" fill-opacity="0.0" clip-path="url(#id_0)" d="M59.12365 184.76784C59.12365 186.4247 57.780502 187.76784 56.12365 187.76784C54.466793 187.76784 53.12365 186.4247 53.12365 184.76784C53.12365 183.11098 54.466793 181.76784 56.12365 181.76784C57.780502 181.76784 59.12365 183.11098 59.12365 184.76784Z" fill-rule="nonzero"/><path fill="#000000" fill-opacity="0.0" clip-path="url(#id_0)" d="M66.27094 203.9235C66.27094 205.58034 64.9278 206.9235 63.270947 206.9235C61.61409 206.9235 60.270947 205.58034 60.270947 203.9235C60.270947 202.26663 61.61409 200.9235 63.270947 200.9235C64.9278 200.9235 66.27094 202.26663 66.27094 203.9235Z" fill-rule="nonzero"/><path fill="#000000" fill-opacity="0.0" clip-path="url(#id_0)" d="M73.41824 179.31293C73.41824 180.96979 72.075096 182.31293 70.41824 182.31293C68.76139 182.31293 67.41824 180.96979 67.41824 179.31293C67.41824 177.65608 68.76139 176.31293 70.41824 176.31293C72.075096 176.31293 73.41824 177.65608 73.41824 179.31293Z" fill-rule="nonzero"/><path fill="#000000" fill-opacity="0.0" clip-path="url(#id_0)" d="M80.565544 186.4067C80.565544 188.06355 79.2224 189.4067 77.565544 189.4067C75.90868 189.4067 74.565544 188.06355 74.565544 186.4067C74.565544 184.74985 75.90868 183.4067 77.565544 183.4067C79.2224 183.4067 80.565544 184.74985 80.565544 186.4067Z" fill-rule="nonzero"/><path fill="#000000" fill-opacity="0.0" clip-path="url(#id_0)" d="M87.71284 169.69936C87.71284 171.3562 86.36969 172.69936 84.71284 172.69936C83.055984 172.69936 81.71284 171.3562 81.71284 169.69936C81.71284 168.0425 83.055984 166.69936 84.71284 166.69936C86.36969 166.69936 87.71284 168.0425 87.71284 169.69936Z" fill-rule="nonzero"/><path fill="#000000" fill-opacity="0.0" clip-path="url(#id_0)" d="M94.86014 251.01778C94.86014 252.67462 93.51699 254.01778 91.86014 254.01778C90.20328 254.01778 88.86014 252.67462 88.86014 251.01778C88.86014 249.36092 90.20328 248.01778 91.86014 248.01778C93.51699 248.01778 94.86014 249.36092 94.86014 251.01778Z" fill-rule="nonzero"/><path fill="#000000" fill-opacity="0.0" clip-path="url(#id_0)" d="M102.00743 224.94264C102.00743 226.59949 100.66428 227.94264 99.00743 227.94264C97.35058 227.94264 96.00743 226.59949 96.00743 224.94264C96.00743 223.28578 97.35058 221.94264 99.00743 221.94264C100.66428 221.94264 102.00743 223.28578 102.00743 224.94264Z" fill-rule="nonzero"/><path fill="#000000" fill-opacity="0.0" clip-path="url(#id_0)" d="M109.15473 131.56102C109.15473 133.21786 107.811584 134.56102 106.15473 134.56102C104.49788 134.56102 103.15473 133.21786 103.15473 131.56102C103.15473 129.90416 104.49788 128.56102 106.15473 128.56102C107.811584 128.56102 109.15473 129.90416 109.15473 131.56102Z" fill-rule="nonzero"/><path fill="#000000" fill-opacity="0.0" clip-path="url(#id_0)" d="M116.302025 249.99863C116.302025 251.65549 114.95888 252.99863 113.302025 252.99863C111.64517 252.99863 110.302025 251.65549 110.302025 249.99863C110.302025 248.34177 111.64517 246.99863 113.302025 246.99863C114.95888 246.99863 116.302025 248.34177 116.302025 249.99863Z" fill-rule="nonzero"/><path fill="#000000" fill-opacity="0.0" clip-path="url(#id_0)" d="M123.449326 238.7975C123.449326 240.45436 122.10618 241.7975 120.449326 241.7975C118.79247 241.7975 117.449326 240.45436 117.449326 238.7975C117.449326 237.14064 118.79247 235.7975 120.449326 235.7975C122.10618 235.7975 123.449326 237.14064 123.449326 238.7975Z" fill-rule="nonzero"/><path fill="#000000" fill-opacity="0.0" clip-path="url(#id_0)" d="M130.59662 173.33093C130.59662 174.9878 129.25348 176.33093 127.59662 176.33093C125.939766 176.33093 124.59662 174.9878 124.59662 173.33093C124.59662 171.67407 125.939766 170.33093 127.59662 170.33093C129.25348 170.33093 130.59662 171.67407 130.59662 173.33093Z" fill-rule="nonzero"/><path fill="#000000" fill-opacity="0.0" clip-path="url(#id_0)" d="M137.74391 202.6698C137.74391 204.32666 136.40077 205.6698 134.74391 205.6698C133.08707 205.6698 131.74391 204.32666 131.74391 202.6698C131.74391 201.01295 133.08707 199.6698 134.74391 199.6698C136.40077 199.6698 137.74391 201.01295 137.74391 202.6698Z" fill-rule="nonzero"/><path fill="#000000" fill-opacity="0.0" clip-path="url(#id_0)" d="M144.89122 212.67235C144.89122 214.32921 143.54807 215.67235 141.89122 215.67235C140.23436 215.67235 138.89122 214.32921 138.89122 212.67235C138.89122 211.0155 140.23436 209.67235 141.89122 209.67235C143.54807 209.67235 144.89122 211.0155 144.89122 212.67235Z" fill-rule="nonzero"/><path fill="#000000" fill-opacity="0.0" clip-path="url(#id_0)" d="M152.03851 179.90062C152.03851 181.55746 150.69537 182.90062 149.03851 182.90062C147.38165 182.90062 146.03851 181.55746 146.03851 179.90062C146.03851 178.24376 147.38165 176.90062 149.03851 176.90062C150.69537 176.90062 152.03851 178.24376 152.03851 179.90062Z" fill-rule="nonzero"/><path fill="#000000" fill-opacity="0.0" clip-path="url(#id_0)" d="M159.1858 184.76564C159.1858 186.4225 157.84267 187.76564 156.1858 187.76564C154.52896 187.76564 153.1858 186.4225 153.1858 184.76564C153.1858 183.1088 154.52896 181.76564 156.1858 181.76564C157.84267 181.76564 159.1858 183.1088 159.1858 184.76564Z" fill-rule="nonzero"/><path fill="#000000" fill-opacity="0.0" clip-path="url(#id_0)" d="M166.33311 239.49635C166.33311 241.15321 164.98996 242.49635 163.33311 242.49635C161.67625 242.49635 160.33311 241.15321 160.33311 239.49635C160.33311 237.83951 161.67625 236.49635 163.33311 236.49635C164.98996 236.49635 166.33311 237.83951 166.33311 239.49635Z" fill-rule="nonzero"/><path fill="#000000" fill-opacity="0.0" clip-path="url(#id_0)" d="M173.48041 195.75854C173.48041 197.4154 172.13725 198.75854 170.48041 198.75854C168.82355 198.75854 167.48041 197.4154 167.48041 195.75854C167.48041 194.10168 168.82355 192.75854 170.48041 192.75854C172.13725 192.75854 173.48041 194.10168 173.48041 195.75854Z" fill-rule="nonzero"/><path fill="#000000" fill-opacity="0.0" clip-path="url(#id_0)" d="M180.6277 167.37671C180.6277 169.03355 179.28456 170.37671 177.6277 170.37671C175.97086 170.37671 174.6277 169.03355 174.6277 167.37671C174.6277 165.71985 175.97086 164.37671 177.6277 164.37671C179.28456 164.37671 180.6277 165.71985 180.6277 167.37671Z" fill-rule="nonzero"/><path fill="#000000" fill-opacity="0.0" clip-path="url(#id_0)" d="M187.775 254.34877C187.775 256.0056 186.43185 257.34875 184.775 257.34875C183.11815 257.34875 181.775 256.0056 181.775 254.34877C181.775 252.69191 183.11815 251.34877 184.775 251.34877C186.43185 251.34877 187.775 252.69191 187.775 254.34877Z" fill-rule="nonzero"/><path fill="#000000" fill-opacity="0.0" clip-path="url(#id_0)" d="M194.9223 146.67337C194.9223 148.33022 193.57915 149.67337 191.9223 149.67337C190.26544 149.67337 188.9223 148.33022 188.9223 146.67337C188.9223 145.01651 190.26544 143.67337 191.9223 143.67337C193.57915 143.67337 194.9223 145.01651 194.9223 146.67337Z" fill-rule="nonzero"/><path fill="#000000" fill-opacity="0.0" clip-path="url(#id_0)" d="M202.0696 243.56319C202.0696 245.22005 200.72646 246.56319 199.0696 246.56319C197.41273 246.56319 196.0696 245.22005 196.0696 243.56319C196.0696 241.90634 197.41273 240.56319 199.0696 240.56319C200.72646 240.56319 202.0696 241.90634 202.0696 243.56319Z" fill-rule="nonzero"/><path fill="#000000" fill-opacity="0.0" clip-path="url(#id_0)" d="M209.21689 181.61198C209.21689 183.26883 207.87375 184.61198 206.21689 184.61198C204.56004 184.61198 203.21689 183.26883 203.21689 181.61198C203.21689 179.95512 204.56004 178.61198 206.21689 178.61198C207.87375 178.61198 209.21689 179.95512 209.21689 181.61198Z" fill-rule="nonzero"/><path fill="#000000" fill-opacity="0.0" clip-path="url(#id_0)" d="M216.3642 204.45586C216.3642 206.11272 215.02104 207.45586 213.3642 207.45586C211.70734 207.45586 210.3642 206.11272 210.3642 204.45586C210.3642 202.79901 211.70734 201.45586 213.3642 201.45586C215.02104 201.45586 216.3642 202.79901 216.3642 204.45586Z" fill-rule="nonzero"/><path fill="#000000" fill-opacity="0.0" clip-path="url(#id_0)" d="M223.51149 206.36166C223.51149 208.01851 222.16833 209.36166 220.51149 209.36166C218.85463 209.36166 217.51149 208.01851 217.51149 206.36166C217.51149 204.7048 218.85463 203.36166 220.51149 203.36166C222.16833 203.36166 223.51149 204.7048 223.51149 206.36166Z" fill-rule="nonzero"/><path fill="#000000" fill-opacity="0.0" clip-path="url(#id_0)" d="M230.65878 216.10973C230.65878 217.76657 229.31564 219.10973 227.65878 219.10973C226.00192 219.10973 224.65878 217.76657 224.65878 216.10973C224.65878 214.45287 226.00192 213.10973 227.65878 213.10973C229.31564 213.10973 230.65878 214.45287 230.65878 216.10973Z" fill-rule="nonzero"/><path fill="#000000" fill-opacity="0.0" clip-path="url(#id_0)" d="M237.80608 209.10767C237.80608 210.76453 236.46294 212.10767 234.80608 212.10767C233.14923 212.10767 231.80608 210.76453 231.80608 209.10767C231.80608 207.45082 233.14923 206.10767 234.80608 206.10767C236.46294 206.10767 237.80608 207.45082 237.80608 209.10767Z" fill-rule="nonzero"/><path fill="#000000" fill-opacity="0.0" clip-path="url(#id_0)" d="M244.95338 162.56482C244.95338 164.22166 243.61023 165.56482 241.95338 165.56482C240.29652 165.56482 238.95338 164.22166 238.95338 162.56482C238.95338 160.90796 240.29652 159.56482 241.95338 159.56482C243.61023 159.56482 244.95338 160.90796 244.95338 162.56482Z" fill-rule="nonzero"/><path fill="#000000" fill-opacity="0.0" clip-path="url(#id_0)" d="M252.10068 249.37253C252.10068 251.02939 250.75752 252.37253 249.10068 252.37253C247.44382 252.37253 246.10068 251.02939 246.10068 249.37253C246.10068 247.71568 247.44382 246.37253 249.10068 246.37253C250.75752 246.37253 252.10068 247.71568 252.10068 249.37253Z" fill-rule="nonzero"/><path fill="#000000" fill-opacity="0.0" clip-path="url(#id_0)" d="M259.248 155.6444C259.248 157.30125 257.90482 158.6444 256.248 158.6444C254.59113 158.6444 253.24797 157.30125 253.24797 155.6444C253.24797 153.98753 254.59113 152.6444 256.248 152.6444C257.90482 152.6444 259.248 153.98753 259.248 155.6444Z" fill-rule="nonzero"/><path fill="#000000" fill-opacity="0.0" clip-path="url(#id_0)" d="M266.39526 211.96284C266.39526 213.6197 265.05212 214.96284 263.39526 214.96284C261.7384 214.96284 260.39526 213.6197 260.39526 211.96284C260.39526 210.306 261.7384 208.96284 263.39526 208.96284C265.05212 208.96284 266.39526 210.306 266.39526 211.96284Z" fill-rule="nonzero"/><path fill="#000000" fill-opacity="0.0" clip-path="url(#id_0)" d="M273.54257 231.63928C273.54257 233.29614 272.19943 234.63928 270.54257 234.63928C268.8857 234.63928 267.54257 233.29614 267.54257 231.63928C267.54257 229.98244 268.8857 228.63928 270.54257 228.63928C272.19943 228.63928 273.54257 229.98244 273.54257 231.63928Z" fill-rule="nonzero"/><path fill="#000000" fill-opacity="0.0" clip-path="url(#id_0)" d="M280.68985 244.39272C280.68985 246.04956 279.3467 247.39272 277.68985 247.39272C276.03302 247.39272 274.68985 246.04956 274.68985 244.39272C274.68985 242.73586 276.03302 241.39272 277.68985 241.39272C279.3467 241.39272 280.68985 242.73586 280.68985 244.39272Z" fill-rule="nonzero"/><path fill="#000000" fill-opacity="0.0" clip-path="url(#id_0)" d="M287.83716 85.46759C287.83716 87.12444 286.49402 88.46759 284.83716 88.46759C283.1803 88.46759 281.83716 87.12444 281.83716 85.46759C281.83716 83.81074 283.1803 82.46759 284.83716 82.46759C286.49402 82.46759 287.83716 83.81074 287.83716 85.46759Z" fill-rule="nonzero"/><path fill="#000000" fill-opacity="0.0" clip-path="url(#id_0)" d="M294.98447 217.15079C294.98447 218.80763 293.64133 220.15079 291.98447 220.15079C290.3276 220.15079 288.98447 218.80763 288.98447 217.15079C288.98447 215.49393 290.3276 214.15079 291.98447 214.15079C293.64133 214.15079 294.98447 215.49393 294.98447 217.15079Z" fill-rule="nonzero"/><path fill="#000000" fill-opacity="0.0" clip-path="url(#id_0)" d="M302.13174 209.30963C302.13174 210.96649 300.7886 212.30963 299.13174 212.30963C297.4749 212.30963 296.13174 210.96649 296.13174 209.30963C296.13174 207.65279 297.4749 206.30963 299.13174 206.30963C300.7886 206.30963 302.13174 207.65279 302.13174 209.30963Z" fill-rule="nonzero"/><path fill="#000000" fill-opacity="0.0" clip-path="url(#id_0)" d="M309.27905 218.91235C309.27905 220.5692 307.9359 221.91235 306.27905 221.91235C304.6222 221.91235 303.27905 220.5692 303.27905 218.91235C303.27905 217.2555 304.6222 215.91235 306.27905 215.91235C307.9359 215.91235 309.27905 217.2555 309.27905 218.91235Z" fill-rule="nonzero"/><path fill="#000000" fill-opacity="0.0" clip-path="url(#id_0)" d="M316.42636 210.46107C316.42636 212.11792 315.0832 213.46107 313.42636 213.46107C311.7695 213.46107 310.42636 212.11792 310.42636 210.46107C310.42636 208.80421 311.7695 207.46107 313.42636 207.46107C315.0832 207.46107 316.42636 208.80421 316.42636 210.46107Z" fill-rule="nonzero"/><path fill="#000000" fill-opacity="0.0" clip-path="url(#id_0)" d="M323.57364 200.06831C323.57364 201.72517 322.2305 203.06831 320.57364 203.06831C318.9168 203.06831 317.57364 201.72517 317.57364 200.06831C317.57364 198.41145 318.9168 197.06831 320.57364 197.06831C322.2305 197.06831 323.57364 198.41145 323.57364 200.06831Z" fill-rule="nonzero"/><path fill="#000000" fill-opacity="0.0" clip-path="url(#id_0)" d="M330.72095 216.8169C330.72095 218.47375 329.3778 219.8169 327.72095 219.8169C326.0641 219.8169 324.72095 218.47375 324.72095 216.8169C324.72095 215.16005 326.0641 213.8169 327.72095 213.8169C329.3778 213.8169 330.72095 215.16005 330.72095 216.8169Z" fill-rule="nonzero"/><path fill="#000000" fill-opacity="0.0" clip-path="url(#id_0)" d="M337.86826 182.04698C337.86826 183.70383 336.5251 185.04698 334.86826 185.04698C333.2114 185.04698 331.86826 183.70383 331.86826 182.04698C331.86826 180.39012 333.2114 179.04698 334.86826 179.04698C336.5251 179.04698 337.86826 180.39012 337.86826 182.04698Z" fill-rule="nonzero"/><path fill="#000000" fill-opacity="0.0" clip-path="url(#id_0)" d="M345.01553 225.71788C345.01553 227.37473 343.6724 228.71788 342.01553 228.71788C340.35867 228.71788 339.01553 227.37473 339.01553 225.71788C339.01553 224.06102 340.35867 222.71788 342.01553 222.71788C343.6724 222.71788 345.01553 224.06102 345.01553 225.71788Z" fill-rule="nonzero"/><path fill="#000000" fill-opacity="0.0" clip-path="url(#id_0)" d="M352.16284 206.97116C352.16284 208.628 350.8197 209.97116 349.16284 209.97116C347.50598 209.97116 346.16284 208.628 346.16284 206.97116C346.16284 205.3143 347.50598 203.97116 349.16284 203.97116C350.8197 203.97116 352.16284 205.3143 352.16284 206.97116Z" fill-rule="nonzero"/><path fill="#000000" fill-opacity="0.0" clip-path="url(#id_0)" d="M359.31015 206.84976C359.31015 208.5066 357.96698 209.84976 356.31015 209.84976C354.6533 209.84976 353.31015 208.5066 353.31015 206.84976C353.31015 205.1929 354.6533 203.84976 356.31015 203.84976C357.96698 203.84976 359.31015 205.1929 359.31015 206.84976Z" fill-rule="nonzero"/><path fill="#000000" fill-opacity="0.0" clip-path="url(#id_0)" d="M366.45743 210.63614C366.45743 212.29298 365.1143 213.63614 363.45743 213.63614C361.80057 213.63614 360.45743 212.29298 360.45743 210.63614C360.45743 208.97928 361.80057 207.63614 363.45743 207.63614C365.1143 207.63614 366.45743 208.97928 366.45743 210.63614Z" fill-rule="nonzero"/><path fill="#000000" fill-opacity="0.0" clip-path="url(#id_0)" d="M373.60474 241.4829C373.60474 243.13974 372.2616 244.4829 370.60474 244.4829C368.94788 244.4829 367.60474 243.13974 367.60474 241.4829C367.60474 239.82603 368.94788 238.4829 370.60474 238.4829C372.2616 238.4829 373.60474 239.82603 373.60474 241.4829Z" fill-rule="nonzero"/><path fill="#000000" fill-opacity="0.0" clip-path="url(#id_0)" d="M380.752 226.09814C380.752 227.75499 379.40887 229.09814 377.752 229.09814C376.09518 229.09814 374.752 227.75499 374.752 226.09814C374.752 224.44128 376.09518 223.09814 377.752 223.09814C379.40887 223.09814 380.752 224.44128 380.752 226.09814Z" fill-rule="nonzero"/><path fill="#000000" fill-opacity="0.0" clip-path="url(#id_0)" d="M387.89932 189.30615C387.89932 190.96301 386.55618 192.30615 384.89932 192.30615C383.24246 192.30615 381.89932 190.96301 381.89932 189.30615C381.89932 187.6493 383.24246 186.30615 384.89932 186.30615C386.55618 186.30615 387.89932 187.6493 387.89932 189.30615Z" fill-rule="nonzero"/><path fill="#000000" fill-opacity="0.0" clip-path="url(#id_0)" d="M395.04663 199.69797C395.04663 201.35483 393.70346 202.69797 392.04663 202.69797C390.38977 202.69797 389.04663 201.35483 389.04663 199.69797C389.04663 198.04112 390.38977 196.69797 392.04663 196.69797C393.70346 196.69797 395.04663 198.04112 395.04663 199.69797Z" fill-rule="nonzero"/><path fill="#000000" fill-opacity="0.0" clip-path="url(#id_0)" d="M402.1939 204.10487C402.1939 205.76173 400.85077 207.10487 399.1939 207.10487C397.53708 207.10487 396.1939 205.76173 396.1939 204.10487C396.1939 202.44801 397.53708 201.10487 399.1939 201.10487C400.85077 201.10487 402.1939 202.44801 402.1939 204.10487Z" fill-rule="nonzero"/><path fill="#000000" fill-opacity="0.0" clip-path="url(#id_0)" d="M409.34122 201.99574C409.34122 203.6526 407.99808 204.99574 406.34122 204.99574C404.68436 204.99574 403.34122 203.6526 403.34122 201.99574C403.34122 200.3389 404.68436 198.99574 406.34122 198.99574C407.99808 198.99574 409.34122 200.3389 409.34122 201.99574Z" fill-rule="nonzero"/><path fill="#000000" fill-opacity="0.0" clip-path="url(#id_0)" d="M416.48853 177.38675C416.48853 179.04361 415.14536 180.38675 413.48853 180.38675C411.83167 180.38675 410.48853 179.04361 410.48853 177.38675C410.48853 175.72989 411.83167 174.38675 413.48853 174.38675C415.14536 174.38675 416.48853 175.72989 416.48853 177.38675Z" fill-rule="nonzero"/><path fill="#000000" fill-opacity="0.0" clip-path="url(#id_0)" d="M423.6358 190.62602C423.6358 192.28288 422.29266 193.62602 420.6358 193.62602C418.97894 193.62602 417.6358 192.28288 417.6358 190.62602C417.6358 188.96916 418.97894 187.62602 420.6358 187.62602C422.29266 187.62602 423.6358 188.96916 423.6358 190.62602Z" fill-rule="nonzero"/><path fill="#000000" fill-opacity="0.0" clip-path="url(#id_0)" d="M430.7831 173.65292C430.7831 175.30977 429.43997 176.65292 427.7831 176.65292C426.12625 176.65292 424.7831 175.30977 424.7831 173.65292C424.7831 171.99606 426.12625 170.65292 427.7831 170.65292C429.43997 170.65292 430.7831 171.99606 430.7831 173.65292Z" fill-rule="nonzero"/><path fill="#000000" fill-opacity="0.0" clip-path="url(#id_0)" d="M437.93042 167.28188C437.93042 168.93874 436.58725 170.28188 434.93042 170.28188C433.27356 170.28188 431.93042 168.93874 431.93042 167.28188C431.93042 165.62503 433.27356 164.28188 434.93042 164.28188C436.58725 164.28188 437.93042 165.62503 437.93042 167.28188Z" fill-rule="nonzero"/><path fill="#000000" fill-opacity="0.0" clip-path="url(#id_0)" d="M445.0777 164.95625C445.0777 166.61311 443.73456 167.95625 442.0777 167.95625C440.42084 167.95625 439.0777 166.61311 439.0777 164.95625C439.0777 163.2994 440.42084 161.95625 442.0777 161.95625C443.73456 161.95625 445.0777 163.2994 445.0777 164.95625Z" fill-rule="nonzero"/><path fill="#000000" fill-opacity="0.0" clip-path="url(#id_0)" d="M452.225 259.23816C452.225 260.89502 450.88187 262.23816 449.225 262.23816C447.56815 262.23816 446.225 260.89502 446.225 259.23816C446.225 257.5813 447.56815 256.23816 449.225 256.23816C450.88187 256.23816 452.225 257.5813 452.225 259.23816Z" fill-rule="nonzero"/><path fill="#000000" fill-opacity="0.0" clip-path="url(#id_0)" d="M459.37228 145.544C459.37228 147.20087 458.02914 148.544 456.37228 148.544C454.71545 148.544 453.37228 147.20087 453.37228 145.544C453.37228 143.88716 454.71545 142.544 456.37228 142.544C458.02914 142.544 459.37228 143.88716 459.37228 145.544Z" fill-rule="nonzero"/><path fill="#000000" fill-opacity="0.0" clip-path="url(#id_0)" d="M466.5196 238.83163C466.5196 240.4885 465.17645 241.83163 463.5196 241.83163C461.86273 241.83163 460.5196 240.4885 460.5196 238.83163C460.5196 237.17477 461.86273 235.83163 463.5196 235.83163C465.17645 235.83163 466.5196 237.17477 466.5196 238.83163Z" fill-rule="nonzero"/><path fill="#000000" fill-opacity="0.0" clip-path="url(#id_0)" d="M473.6669 168.83148C473.6669 170.48834 472.32376 171.83148 470.6669 171.83148C469.01004 171.83148 467.6669 170.48834 467.6669 168.83148C467.6669 167.17464 469.01004 165.83148 470.6669 165.83148C472.32376 165.83148 473.6669 167.17464 473.6669 168.83148Z" fill-rule="nonzero"/><path fill="#000000" fill-opacity="0.0" clip-path="url(#id_0)" d="M480.81418 210.82362C480.81418 212.48047 479.47104 213.82362 477.81418 213.82362C476.15735 213.82362 474.81418 212.48047 474.81418 210.82362C474.81418 209.16676 476.15735 207.82362 477.81418 207.82362C479.47104 207.82362 480.81418 209.16676 480.81418 210.82362Z" fill-rule="nonzero"/><path fill="#000000" fill-opacity="0.0" clip-path="url(#id_0)" d="M487.9615 200.32187C487.9615 201.97873 486.61835 203.32187 484.9615 203.32187C483.30463 203.32187 481.9615 201.97873 481.9615 200.32187C481.9615 198.66502 483.30463 197.32187 484.9615 197.32187C486.61835 197.32187 487.9615 198.66502 487.9615 200.32187Z" fill-rule="nonzero"/><path fill="#000000" fill-opacity="0.0" clip-path="url(#id_0)" d="M495.1088 201.90982C495.1088 203.56668 493.76562 204.90982 492.1088 204.90982C490.45193 204.90982 489.1088 203.56668 489.1088 201.90982C489.1088 200.25298 490.45193 198.90982 492.1088 198.90982C493.76562 198.90982 495.1088 200.25298 495.1088 201.90982Z" fill-rule="nonzero"/><path fill="#000000" fill-opacity="0.0" clip-path="url(#id_0)" d="M502.25607 213.20625C502.25607 214.86311 500.91293 216.20625 499.25607 216.20625C497.5992 216.20625 496.25607 214.86311 496.25607 213.20625C496.25607 211.54941 497.5992 210.20625 499.25607 210.20625C500.91293 210.20625 502.25607 211.54941 502.25607 213.20625Z" fill-rule="nonzero"/><path fill="#000000" fill-opacity="0.0" clip-path="url(#id_0)" d="M509.40338 206.48149C509.40338 208.13835 508.06024 209.48149 506.40338 209.48149C504.74652 209.48149 503.40338 208.13835 503.40338 206.48149C503.40338 204.82463 504.74652 203.48149 506.40338 203.48149C508.06024 203.48149 509.40338 204.82463 509.40338 206.48149Z" fill-rule="nonzero"/><path fill="#000000" fill-opacity="0.0" clip-path="url(#id_0)" d="M516.55066 201.18987C516.55066 202.84673 515.2075 204.18987 513.55066 204.18987C511.89383 204.18987 510.5507 202.84673 510.5507 201.18987C510.5507 199.53302 511.89383 198.18987 513.55066 198.18987C515.2075 198.18987 516.55066 199.53302 516.55066 201.18987Z" fill-rule="nonzero"/><path fill="#000000" fill-opacity="0.0" clip-path="url(#id_0)" d="M523.698 146.22324C523.698 147.8801 522.3548 149.22324 520.698 149.22324C519.04114 149.22324 517.698 147.8801 517.698 146.22324C517.698 144.56638 519.04114 143.22324 520.698 143.22324C522.3548 143.22324 523.698 144.56638 523.698 146.22324Z" fill-rule="nonzero"/><path fill="#000000" fill-opacity="0.0" clip-path="url(#id_0)" d="M530.8453 200.56773C530.8453 202.2246 529.50214 203.56773 527.8453 203.56773C526.1884 203.56773 524.8453 202.2246 524.8453 200.56773C524.8453 198.91087 526.1884 197.56773 527.8453 197.56773C529.50214 197.56773 530.8453 198.91087 530.8453 200.56773Z" fill-rule="nonzero"/><path fill="#000000" fill-opacity="0.0" clip-path="url(#id_0)" d="M537.99255 194.55968C537.99255 196.21654 536.6494 197.55968 534.99255 197.55968C533.3357 197.55968 531.99255 196.21654 531.99255 194.55968C531.99255 192.90283 533.3357 191.55968 534.99255 191.55968C536.6494 191.55968 537.99255 192.90283 537.99255 194.55968Z" fill-rule="nonzero"/><path fill="#000000" fill-opacity="0.0" clip-path="url(#id_0)" d="M545.1399 224.35583C545.1399 226.01268 543.7967 227.35583 542.1399 227.35583C540.48303 227.35583 539.1399 226.01268 539.1399 224.35583C539.1399 222.69897 540.48303 221.35583 542.1399 221.35583C543.7967 221.35583 545.1399 222.69897 545.1399 224.35583Z" fill-rule="nonzero"/><path fill="#000000" fill-opacity="0.0" clip-path="url(#id_0)" d="M552.2872 223.47116C552.2872 225.12802 550.94403 226.47116 549.2872 226.47116C547.6303 226.47116 546.2872 225.12802 546.2872 223.47116C546.2872 221.81432 547.6303 220.47116 549.2872 220.47116C550.94403 220.47116 552.2872 221.81432 552.2872 223.47116Z" fill-rule="nonzero"/><path fill="#000000" fill-opacity="0.0" clip-path="url(#id_0)" d="M559.43445 218.41135C559.43445 220.0682 558.0913 221.41135 556.43445 221.41135C554.7776 221.41135 553.43445 220.0682 553.43445 218.41135C553.43445 216.75449 554.7776 215.41135 556.43445 215.41135C558.0913 215.41135 559.43445 216.75449 559.43445 218.41135Z" fill-rule="nonzero"/><path fill="#000000" fill-opacity="0.0" clip-path="url(#id_0)" d="M566.5818 238.47464C566.5818 240.1315 565.2386 241.47464 563.5818 241.47464C561.9249 241.47464 560.5818 240.1315 560.5818 238.47464C560.5818 236.8178 561.9249 235.47464 563.5818 235.47464C565.2386 235.47464 566.5818 236.8178 566.5818 238.47464Z" fill-rule="nonzero"/><path fill="#000000" fill-opacity="0.0" clip-path="url(#id_0)" d="M573.72906 208.19115C573.72906 209.84799 572.3859 211.19115 570.72906 211.19115C569.0722 211.19115 567.72906 209.84799 567.72906 208.19115C567.72906 206.53429 569.0722 205.19115 570.72906 205.19115C572.3859 205.19115 573.72906 206.53429 573.72906 208.19115Z" fill-rule="nonzero"/><path fill="#000000" fill-opacity="0.0" clip-path="url(#id_0)" d="M580.87634 204.42116C580.87634 206.07802 579.5332 207.42116 577.87634 207.42116C576.2195 207.42116 574.87634 206.07802 574.87634 204.42116C574.87634 202.76431 576.2195 201.42116 577.87634 201.42116C579.5332 201.42116 580.87634 202.76431 580.87634 204.42116Z" fill-rule="nonzero"/><path fill="#000000" d="M18.925 273.48856L18.925 272.42606L22.175 272.42606L22.175 273.48856L18.925 273.48856ZM28.596874 275.05106L28.596874 276.06668L22.909374 276.06668Q22.909374 275.69168 23.034374 275.3323Q23.253124 274.75418 23.721874 274.19168Q24.20625 273.62918 25.1125 272.8948Q26.51875 271.73856 27.003124 271.06668Q27.503124 270.3948 27.503124 269.80106Q27.503124 269.17606 27.05 268.75418Q26.596874 268.31668 25.878124 268.31668Q25.1125 268.31668 24.659374 268.7698Q24.20625 269.22293 24.190624 270.03543L23.1125 269.92606Q23.221874 268.7073 23.940624 268.0823Q24.675 267.44168 25.909374 267.44168Q27.14375 267.44168 27.8625 268.12918Q28.58125 268.81668 28.58125 269.8323Q28.58125 270.34793 28.3625 270.84793Q28.159374 271.3323 27.659374 271.8948Q27.175 272.44168 26.05 273.3948Q25.096874 274.19168 24.815624 274.48856Q24.55 274.7698 24.378124 275.05106L28.596874 275.05106ZM30.05 271.8323Q30.05 270.30106 30.3625 269.37918Q30.675 268.44168 31.284374 267.94168Q31.909374 267.44168 32.846874 267.44168Q33.534374 267.44168 34.05 267.72293Q34.58125 268.00418 34.925 268.53543Q35.26875 269.05106 35.45625 269.80106Q35.64375 270.55106 35.64375 271.8323Q35.64375 273.34793 35.33125 274.2698Q35.034374 275.19168 34.409374 275.7073Q33.8 276.2073 32.846874 276.2073Q31.6125 276.2073 30.89375 275.31668Q30.05 274.25418 30.05 271.8323ZM31.128124 271.8323Q31.128124 273.94168 31.628124 274.6448Q32.128124 275.34793 32.846874 275.34793Q33.58125 275.34793 34.065624 274.6448Q34.565624 273.94168 34.565624 271.8323Q34.565624 269.7073 34.065624 269.0198Q33.58125 268.31668 32.83125 268.31668Q32.1125 268.31668 31.675 268.92606Q31.128124 269.7073 31.128124 271.8323ZM37.64375 276.06668L37.64375 274.86356L38.846874 274.86356L38.846874 276.06668L37.64375 276.06668ZM40.05 271.8323Q40.05 270.30106 40.3625 269.37918Q40.675 268.44168 41.284374 267.94168Q41.909374 267.44168 42.846874 267.44168Q43.534374 267.44168 44.05 267.72293Q44.58125 268.00418 44.925 268.53543Q45.26875 269.05106 45.45625 269.80106Q45.64375 270.55106 45.64375 271.8323Q45.64375 273.34793 45.33125 274.2698Q45.034374 275.19168 44.409374 275.7073Q43.8 276.2073 42.846874 276.2073Q41.6125 276.2073 40.89375 275.31668Q40.05 274.25418 40.05 271.8323ZM41.128124 271.8323Q41.128124 273.94168 41.628124 274.6448Q42.128124 275.34793 42.846874 275.34793Q43.58125 275.34793 44.065624 274.6448Q44.565624 273.94168 44.565624 271.8323Q44.565624 269.7073 44.065624 269.0198Q43.58125 268.31668 42.83125 268.31668Q42.1125 268.31668 41.675 268.92606Q41.128124 269.7073 41.128124 271.8323Z" fill-rule="nonzero"/><path fill="#000000" d="M30.05 201.78229Q30.05 200.25104 30.3625 199.32916Q30.675 198.39166 31.284374 197.89166Q31.909374 197.39166 32.846874 197.39166Q33.534374 197.39166 34.05 197.67291Q34.58125 197.95416 34.925 198.48541Q35.26875 199.00104 35.45625 199.75104Q35.64375 200.50104 35.64375 201.78229Q35.64375 203.29791 35.33125 204.21979Q35.034374 205.14166 34.409374 205.65729Q33.8 206.15729 32.846874 206.15729Q31.6125 206.15729 30.89375 205.26666Q30.05 204.20416 30.05 201.78229ZM31.128124 201.78229Q31.128124 203.89166 31.628124 204.59479Q32.128124 205.29791 32.846874 205.29791Q33.58125 205.29791 34.065624 204.59479Q34.565624 203.89166 34.565624 201.78229Q34.565624 199.65729 34.065624 198.96979Q33.58125 198.26666 32.83125 198.26666Q32.1125 198.26666 31.675 198.87604Q31.128124 199.65729 31.128124 201.78229ZM37.64375 206.01666L37.64375 204.81354L38.846874 204.81354L38.846874 206.01666L37.64375 206.01666ZM40.05 201.78229Q40.05 200.25104 40.3625 199.32916Q40.675 198.39166 41.284374 197.89166Q41.909374 197.39166 42.846874 197.39166Q43.534374 197.39166 44.05 197.67291Q44.58125 197.95416 44.925 198.48541Q45.26875 199.00104 45.45625 199.75104Q45.64375 200.50104 45.64375 201.78229Q45.64375 203.29791 45.33125 204.21979Q45.034374 205.14166 44.409374 205.65729Q43.8 206.15729 42.846874 206.15729Q41.6125 206.15729 40.89375 205.26666Q40.05 204.20416 40.05 201.78229ZM41.128124 201.78229Q41.128124 203.89166 41.628124 204.59479Q42.128124 205.29791 42.846874 205.29791Q43.58125 205.29791 44.065624 204.59479Q44.565624 203.89166 44.565624 201.78229Q44.565624 199.65729 44.065624 198.96979Q43.58125 198.26666 42.83125 198.26666Q42.1125 198.26666 41.675 198.87604Q41.128124 199.65729 41.128124 201.78229Z" fill-rule="nonzero"/><path fill="#000000" d="M28.596874 134.95103L28.596874 135.96666L22.909374 135.96666Q22.909374 135.59166 23.034374 135.23228Q23.253124 134.65416 23.721874 134.09166Q24.20625 133.52916 25.1125 132.79478Q26.51875 131.63853 27.003124 130.96666Q27.503124 130.29478 27.503124 129.70103Q27.503124 129.07603 27.05 128.65416Q26.596874 128.21666 25.878124 128.21666Q25.1125 128.21666 24.659374 128.66978Q24.20625 129.12291 24.190624 129.93541L23.1125 129.82603Q23.221874 128.60728 23.940624 127.982285Q24.675 127.34166 25.909374 127.34166Q27.14375 127.34166 27.8625 128.02916Q28.58125 128.71666 28.58125 129.73228Q28.58125 130.24791 28.3625 130.74791Q28.159374 131.23228 27.659374 131.79478Q27.175 132.34166 26.05 133.29478Q25.096874 134.09166 24.815624 134.38853Q24.55 134.66978 24.378124 134.95103L28.596874 134.95103ZM30.05 131.73228Q30.05 130.20103 30.3625 129.27916Q30.675 128.34166 31.284374 127.84166Q31.909374 127.34166 32.846874 127.34166Q33.534374 127.34166 34.05 127.62291Q34.58125 127.90416 34.925 128.43541Q35.26875 128.95103 35.45625 129.70103Q35.64375 130.45103 35.64375 131.73228Q35.64375 133.24791 35.33125 134.16978Q35.034374 135.09166 34.409374 135.60728Q33.8 136.10728 32.846874 136.10728Q31.6125 136.10728 30.89375 135.21666Q30.05 134.15416 30.05 131.73228ZM31.128124 131.73228Q31.128124 133.84166 31.628124 134.54478Q32.128124 135.24791 32.846874 135.24791Q33.58125 135.24791 34.065624 134.54478Q34.565624 133.84166 34.565624 131.73228Q34.565624 129.60728 34.065624 128.91978Q33.58125 128.21666 32.83125 128.21666Q32.1125 128.21666 31.675 128.82603Q31.128124 129.60728 31.128124 131.73228ZM37.64375 135.96666L37.64375 134.76353L38.846874 134.76353L38.846874 135.96666L37.64375 135.96666ZM40.05 131.73228Q40.05 130.20103 40.3625 129.27916Q40.675 128.34166 41.284374 127.84166Q41.909374 127.34166 42.846874 127.34166Q43.534374 127.34166 44.05 127.62291Q44.58125 127.90416 44.925 128.43541Q45.26875 128.95103 45.45625 129.70103Q45.64375 130.45103 45.64375 131.73228Q45.64375 133.24791 45.33125 134.16978Q45.034374 135.09166 44.409374 135.60728Q43.8 136.10728 42.846874 136.10728Q41.6125 136.10728 40.89375 135.21666Q40.05 134.15416 40.05 131.73228ZM41.128124 131.73228Q41.128124 133.84166 41.628124 134.54478Q42.128124 135.24791 42.846874 135.24791Q43.58125 135.24791 44.065624 134.54478Q44.565624 133.84166 44.565624 131.73228Q44.565624 129.60728 44.065624 128.91978Q43.58125 128.21666 42.83125 128.21666Q42.1125 128.21666 41.675 128.82603Q41.128124 129.60728 41.128124 131.73228Z" fill-rule="nonzero"/><path fill="#000000" d="M26.425 65.916664L26.425 63.854164L22.70625 63.854164L22.70625 62.885414L26.628124 57.322914L27.4875 57.322914L27.4875 62.885414L28.64375 62.885414L28.64375 63.854164L27.4875 63.854164L27.4875 65.916664L26.425 65.916664ZM26.425 62.885414L26.425 59.02604L23.7375 62.885414L26.425 62.885414ZM30.05 61.68229Q30.05 60.15104 30.3625 59.229164Q30.675 58.291664 31.284374 57.791664Q31.909374 57.291664 32.846874 57.291664Q33.534374 57.291664 34.05 57.572914Q34.58125 57.854164 34.925 58.385414Q35.26875 58.90104 35.45625 59.65104Q35.64375 60.40104 35.64375 61.68229Q35.64375 63.197914 35.33125 64.11979Q35.034374 65.041664 34.409374 65.55729Q33.8 66.05729 32.846874 66.05729Q31.6125 66.05729 30.89375 65.166664Q30.05 64.104164 30.05 61.68229ZM31.128124 61.68229Q31.128124 63.791664 31.628124 64.49479Q32.128124 65.197914 32.846874 65.197914Q33.58125 65.197914 34.065624 64.49479Q34.565624 63.791664 34.565624 61.68229Q34.565624 59.55729 34.065624 58.86979Q33.58125 58.166664 32.83125 58.166664Q32.1125 58.166664 31.675 58.77604Q31.128124 59.55729 31.128124 61.68229ZM37.64375 65.916664L37.64375 64.71354L38.846874 64.71354L38.846874 65.916664L37.64375 65.916664ZM40.05 61.68229Q40.05 60.15104 40.3625 59.229164Q40.675 58.291664 41.284374 57.791664Q41.909374 57.291664 42.846874 57.291664Q43.534374 57.291664 44.05 57.572914Q44.58125 57.854164 44.925 58.385414Q45.26875 58.90104 45.45625 59.65104Q45.64375 60.40104 45.64375 61.68229Q45.64375 63.197914 45.33125 64.11979Q45.034374 65.041664 44.409374 65.55729Q43.8 66.05729 42.846874 66.05729Q41.6125 66.05729 40.89375 65.166664Q40.05 64.104164 40.05 61.68229ZM41.128124 61.68229Q41.128124 63.791664 41.628124 64.49479Q42.128124 65.197914 42.846874 65.197914Q43.58125 65.197914 44.065624 64.49479Q44.565624 63.791664 44.565624 61.68229Q44.565624 59.55729 44.065624 58.86979Q43.58125 58.166664 42.83125 58.166664Q42.1125 58.166664 41.675 58.77604Q41.128124 59.55729 41.128124 61.68229Z" fill-rule="nonzero"/><path fill="#000000" d="M57.858036 293.56668L57.71741 292.50418Q58.608036 292.3323 59.014286 291.8948Q59.40491 291.4573 59.40491 290.8323Q59.40491 290.0823 58.889286 289.56668Q58.37366 289.05106 57.608036 289.05106Q56.889286 289.05106 56.420536 289.53543Q55.93616 290.00418 55.93616 290.73856Q55.93616 291.03543 56.06116 291.48856L55.12366 291.36356Q55.139286 291.25418 55.139286 291.19168Q55.139286 290.5198 54.795536 289.98856Q54.43616 289.44168 53.701786 289.44168Q53.12366 289.44168 52.74866 289.8323Q52.358036 290.22293 52.358036 290.84793Q52.358036 291.4573 52.74866 291.87918Q53.139286 292.28543 53.90491 292.3948L53.71741 293.4573Q52.670536 293.2698 52.09241 292.5823Q51.49866 291.8948 51.49866 290.87918Q51.49866 290.17606 51.81116 289.5823Q52.108036 288.98856 52.62366 288.67606Q53.139286 288.36356 53.733036 288.36356Q54.27991 288.36356 54.74866 288.66043Q55.201786 288.9573 55.46741 289.53543Q55.639286 288.78543 56.201786 288.36356Q56.74866 287.94168 57.59241 287.94168Q58.71741 287.94168 59.49866 288.7698Q60.27991 289.5823 60.27991 290.8323Q60.27991 291.9573 59.608036 292.7073Q58.920536 293.4573 57.858036 293.56668ZM60.12366 286.1448L51.52991 286.1448L51.52991 283.17606Q51.52991 282.17606 51.65491 281.6448Q51.826786 280.91043 52.264286 280.3948Q52.84241 279.7073 53.74866 279.37918Q54.639286 279.03543 55.77991 279.03543Q56.764286 279.03543 57.514286 279.2698Q58.264286 279.48856 58.764286 279.84793Q59.264286 280.2073 59.545536 280.6448Q59.826786 281.06668 59.983036 281.66043Q60.12366 282.25418 60.12366 283.03543L60.12366 286.1448ZM59.108036 285.00418L59.108036 283.17606Q59.108036 282.31668 58.951786 281.8323Q58.795536 281.34793 58.49866 281.06668Q58.108036 280.66043 57.420536 280.44168Q56.733036 280.2073 55.764286 280.2073Q54.420536 280.2073 53.701786 280.66043Q52.96741 281.09793 52.71741 281.72293Q52.545536 282.19168 52.545536 283.19168L52.545536 285.00418L59.108036 285.00418Z" fill-rule="nonzero"/><path fill="#000000" d="M230.84375 33.76875L232.59375 33.534374Q232.90625 35.034374 233.625 35.690624Q234.35938 36.346874 235.40625 36.346874Q236.64062 36.346874 237.48438 35.4875Q238.34375 34.628124 238.34375 33.3625Q238.34375 32.14375 237.54688 31.3625Q236.76562 30.58125 235.54688 30.58125Q235.04688 30.58125 234.3125 30.76875L234.5 29.221874Q234.67188 29.253124 234.78125 29.253124Q235.90625 29.253124 236.79688 28.675Q237.70312 28.08125 237.70312 26.8625Q237.70312 25.89375 237.04688 25.253124Q236.39062 24.6125 235.35938 24.6125Q234.34375 24.6125 233.65625 25.26875Q232.96875 25.909374 232.78125 27.190624L231.01562 26.878124Q231.34375 25.1125 232.48438 24.14375Q233.625 23.175 235.32812 23.175Q236.5 23.175 237.48438 23.675Q238.46875 24.175 238.98438 25.05Q239.51562 25.925 239.51562 26.89375Q239.51562 27.815624 239.01562 28.58125Q238.51562 29.346874 237.54688 29.8Q238.8125 30.08125 239.51562 31.01875Q240.21875 31.940624 240.21875 33.315624Q240.21875 35.190624 238.84375 36.503124Q237.48438 37.8 235.39062 37.8Q233.5 37.8 232.25 36.675Q231.01562 35.55 230.84375 33.76875ZM242.54688 37.55L242.54688 23.2375L247.46875 23.2375Q249.14062 23.2375 250.03125 23.440624Q251.25 23.721874 252.125 24.45625Q253.25 25.425 253.8125 26.909374Q254.375 28.39375 254.375 30.315624Q254.375 31.940624 254.0 33.20625Q253.625 34.45625 253.01562 35.284374Q252.42188 36.1125 251.71875 36.596874Q251.01562 37.065624 250.01562 37.315624Q249.01562 37.55 247.70312 37.55L242.54688 37.55ZM244.4375 35.8625L247.5 35.8625Q248.90625 35.8625 249.70312 35.596874Q250.51562 35.33125 251.0 34.846874Q251.67188 34.175 252.04688 33.05Q252.42188 31.909374 252.42188 30.284374Q252.42188 28.034374 251.6875 26.83125Q250.95312 25.628124 249.89062 25.221874Q249.14062 24.925 247.45312 24.925L244.4375 24.925L244.4375 35.8625ZM260.96875 37.55L266.46875 23.2375L268.51562 23.2375L274.375 37.55L272.21875 37.55L270.54688 33.20625L264.5625 33.20625L262.98438 37.55L260.96875 37.55ZM265.10938 31.675L269.95312 31.675L268.46875 27.70625Q267.78125 25.89375 267.45312 24.7375Q267.17188 26.1125 266.67188 27.471874L265.10938 31.675ZM282.09375 33.753124L283.8125 33.971874Q283.53125 35.76875 282.35938 36.784374Q281.20312 37.784374 279.5 37.784374Q277.375 37.784374 276.07812 36.39375Q274.78125 35.003124 274.78125 32.409374Q274.78125 30.721874 275.32812 29.471874Q275.89062 28.20625 277.03125 27.58125Q278.17188 26.940624 279.51562 26.940624Q281.20312 26.940624 282.26562 27.8Q283.34375 28.659374 283.65625 30.221874L281.9375 30.4875Q281.70312 29.440624 281.07812 28.925Q280.45312 28.39375 279.57812 28.39375Q278.25 28.39375 277.42188 29.346874Q276.59375 30.3 276.59375 32.346874Q276.59375 34.440624 277.39062 35.39375Q278.1875 36.33125 279.48438 36.33125Q280.51562 36.33125 281.20312 35.70625Q281.90625 35.065624 282.09375 33.753124ZM292.09375 33.753124L293.8125 33.971874Q293.53125 35.76875 292.35938 36.784374Q291.20312 37.784374 289.5 37.784374Q287.375 37.784374 286.07812 36.39375Q284.78125 35.003124 284.78125 32.409374Q284.78125 30.721874 285.32812 29.471874Q285.89062 28.20625 287.03125 27.58125Q288.17188 26.940624 289.51562 26.940624Q291.20312 26.940624 292.26562 27.8Q293.34375 28.659374 293.65625 30.221874L291.9375 30.4875Q291.70312 29.440624 291.07812 28.925Q290.45312 28.39375 289.57812 28.39375Q288.25 28.39375 287.42188 29.346874Q286.59375 30.3 286.59375 32.346874Q286.59375 34.440624 287.39062 35.39375Q288.1875 36.33125 289.48438 36.33125Q290.51562 36.33125 291.20312 35.70625Q291.90625 35.065624 292.09375 33.753124ZM302.42188 34.20625L304.23438 34.440624Q303.8125 36.01875 302.64062 36.909374Q301.48438 37.784374 299.67188 37.784374Q297.40625 37.784374 296.0625 36.39375Q294.73438 34.9875 294.73438 32.45625Q294.73438 29.83125 296.07812 28.39375Q297.42188 26.940624 299.57812 26.940624Q301.65625 26.940624 302.96875 28.3625Q304.29688 29.76875 304.29688 32.346874Q304.29688 32.503124 304.28125 32.815624L296.54688 32.815624Q296.64062 34.51875 297.51562 35.425Q298.39062 36.33125 299.6875 36.33125Q300.65625 36.33125 301.32812 35.83125Q302.01562 35.315624 302.42188 34.20625ZM296.64062 31.3625L302.4375 31.3625Q302.32812 30.065624 301.78125 29.409374Q300.9375 28.39375 299.59375 28.39375Q298.39062 28.39375 297.5625 29.20625Q296.73438 30.003124 296.64062 31.3625ZM306.28125 37.55L306.28125 23.2375L308.03125 23.2375L308.03125 37.55L306.28125 37.55ZM317.42188 34.20625L319.23438 34.440624Q318.8125 36.01875 317.64062 36.909374Q316.48438 37.784374 314.67188 37.784374Q312.40625 37.784374 311.0625 36.39375Q309.73438 34.9875 309.73438 32.45625Q309.73438 29.83125 311.07812 28.39375Q312.42188 26.940624 314.57812 26.940624Q316.65625 26.940624 317.96875 28.3625Q319.29688 29.76875 319.29688 32.346874Q319.29688 32.503124 319.28125 32.815624L311.54688 32.815624Q311.64062 34.51875 312.51562 35.425Q313.39062 36.33125 314.6875 36.33125Q315.65625 36.33125 316.32812 35.83125Q317.01562 35.315624 317.42188 34.20625ZM311.64062 31.3625L317.4375 31.3625Q317.32812 30.065624 316.78125 29.409374Q315.9375 28.39375 314.59375 28.39375Q313.39062 28.39375 312.5625 29.20625Q311.73438 30.003124 311.64062 31.3625ZM321.29688 37.55L321.29688 27.175L322.875 27.175L322.875 28.753124Q323.48438 27.64375 324.0 27.3Q324.51562 26.940624 325.125 26.940624Q326.01562 26.940624 326.9375 27.503124L326.32812 29.14375Q325.6875 28.753124 325.04688 28.753124Q324.46875 28.753124 324.0 29.1125Q323.54688 29.45625 323.34375 30.065624Q323.0625 31.003124 323.0625 32.1125L323.0625 37.55L321.29688 37.55ZM335.09375 36.26875Q334.10938 37.096874 333.20312 37.440624Q332.29688 37.784374 331.26562 37.784374Q329.5625 37.784374 328.64062 36.95625Q327.71875 36.1125 327.71875 34.815624Q327.71875 34.05 328.0625 33.425Q328.42188 32.8 328.98438 32.425Q329.54688 32.034374 330.25 31.83125Q330.76562 31.70625 331.8125 31.565624Q333.9375 31.315624 334.9375 30.971874Q334.95312 30.6125 334.95312 30.503124Q334.95312 29.440624 334.45312 28.9875Q333.78125 28.39375 332.45312 28.39375Q331.20312 28.39375 330.60938 28.83125Q330.03125 29.26875 329.75 30.378124L328.03125 30.14375Q328.26562 29.034374 328.79688 28.3625Q329.32812 27.675 330.34375 27.315624Q331.35938 26.940624 332.70312 26.940624Q334.03125 26.940624 334.85938 27.253124Q335.6875 27.565624 336.07812 28.05Q336.46875 28.51875 336.625 29.2375Q336.71875 29.690624 336.71875 30.8625L336.71875 33.20625Q336.71875 35.659374 336.82812 36.315624Q336.9375 36.95625 337.28125 37.55L335.4375 37.55Q335.17188 37.003124 335.09375 36.26875ZM334.9375 32.346874Q333.98438 32.7375 332.0625 33.003124Q330.98438 33.159374 330.53125 33.3625Q330.09375 33.55 329.84375 33.925Q329.59375 34.3 329.59375 34.76875Q329.59375 35.471874 330.125 35.940624Q330.65625 36.409374 331.6875 36.409374Q332.70312 36.409374 333.48438 35.971874Q334.28125 35.51875 334.65625 34.753124Q334.9375 34.14375 334.9375 32.9875L334.9375 32.346874ZM343.15625 35.971874L343.40625 37.534374Q342.67188 37.690624 342.07812 37.690624Q341.125 37.690624 340.59375 37.39375Q340.07812 37.08125 339.85938 36.596874Q339.64062 36.096874 339.64062 34.51875L339.64062 28.55L338.35938 28.55L338.35938 27.175L339.64062 27.175L339.64062 24.6125L341.39062 23.55L341.39062 27.175L343.15625 27.175L343.15625 28.55L341.39062 28.55L341.39062 34.6125Q341.39062 35.3625 341.48438 35.58125Q341.57812 35.784374 341.78125 35.925Q342.0 36.05 342.39062 36.05Q342.67188 36.05 343.15625 35.971874ZM345.32812 25.253124L345.32812 23.2375L347.09375 23.2375L347.09375 25.253124L345.32812 25.253124ZM345.32812 37.55L345.32812 27.175L347.09375 27.175L347.09375 37.55L345.32812 37.55ZM348.67188 32.3625Q348.67188 29.4875 350.26562 28.096874Q351.60938 26.940624 353.53125 26.940624Q355.67188 26.940624 357.01562 28.346874Q358.375 29.753124 358.375 32.221874Q358.375 34.221874 357.78125 35.378124Q357.1875 36.51875 356.03125 37.159374Q354.89062 37.784374 353.53125 37.784374Q351.34375 37.784374 350.0 36.39375Q348.67188 34.9875 348.67188 32.3625ZM350.46875 32.3625Q350.46875 34.3625 351.32812 35.346874Q352.20312 36.33125 353.53125 36.33125Q354.84375 36.33125 355.70312 35.346874Q356.57812 34.346874 356.57812 32.3Q356.57812 30.378124 355.70312 29.39375Q354.82812 28.39375 353.53125 28.39375Q352.20312 28.39375 351.32812 29.39375Q350.46875 30.378124 350.46875 32.3625ZM360.3125 37.55L360.3125 27.175L361.90625 27.175L361.90625 28.659374Q363.04688 26.940624 365.20312 26.940624Q366.14062 26.940624 366.92188 27.284374Q367.71875 27.6125 368.10938 28.159374Q368.5 28.70625 368.65625 29.45625Q368.75 29.95625 368.75 31.175L368.75 37.55L366.98438 37.55L366.98438 31.2375Q366.98438 30.159374 366.78125 29.628124Q366.57812 29.096874 366.04688 28.784374Q365.53125 28.471874 364.82812 28.471874Q363.70312 28.471874 362.89062 29.190624Q362.07812 29.89375 362.07812 31.878124L362.07812 37.55L360.3125 37.55Z" fill-rule="nonzero"/></svg>